# xmcd
#
# Track frame offsets: 
#        150
#        12750
#        31780
#        48063
#        60520
#        73270
#        88307
#        97722
#        113036
#        129751
#        141499
#        151259
#        163951
#        175833
#
# Disc length: 2537 seconds
#
# Revision: 0
# Processed by: cddbd v1.5.2PL0 Copyright (c) Steve Scherf et al.
# Submitted via: ExactAudioCopy v1.0b3
#
DISCID=ad09e70e
DTITLE=Krzysztof Piechota Kubryk - Polskie piosenki marynarskie - Morz
DTITLE=e nasze morze
DYEAR=1900
DGENRE=Folk
TTITLE0=Morze nasze morze
TTITLE1=Chlopy z Albatrosa
TTITLE2=Marynarska wiara
TTITLE3=Bosman
TTITLE4=Bialy slon
TTITLE5=Pod zaglami Zawiszy
TTITLE6=Hej czas juz czas
TTITLE7=Swiat jest wszedzie taki sam
TTITLE8=Zeglarski szlak
TTITLE9=Choc burza huczy wkolo nas
TTITLE10=Skoczyla makrela
TTITLE11=A motorki - cala naprzod
TTITLE12=Nasz okret mknie po srebrnej fali
TTITLE13=Pozegnalem, co kochalem
EXTD=
EXTT0=
EXTT1=
EXTT2=
EXTT3=
EXTT4=
EXTT5=
EXTT6=
EXTT7=
EXTT8=
EXTT9=
EXTT10=
EXTT11=
EXTT12=
EXTT13=
PLAYORDER=
